<?xml version="1.0" encoding="UTF-8" standalone="no"?><!DOCTYPE svg PUBLIC "-//W3C//DTD SVG 1.1//EN" "http://www.w3.org/Graphics/SVG/1.1/DTD/svg11.dtd"><svg width="100%" height="100%" viewBox="0 0 2917 2917" version="1.1" xmlns="http://www.w3.org/2000/svg" xmlns:xlink="http://www.w3.org/1999/xlink" xml:space="preserve" xmlns:serif="http://www.serif.com/" style="fill-rule:evenodd;clip-rule:evenodd;stroke-linejoin:round;stroke-miterlimit:2;"><g><path d="M2735.38,1420l7.066,-17.057c21.302,21.303 21.301,53.238 0.035,74.541c-0.121,0.121 -0.243,0.24 -0.368,0.357c0,-0 -623.243,586.578 -623.166,586.502c-10.615,10.576 -21.273,15.705 -37.177,15.705c-15.959,0 -26.636,-5.165 -37.288,-15.817c-21.303,-21.303 -21.303,-53.274 -0,-74.577c0.122,-0.123 0.247,-0.243 0.373,-0.362l584.953,-549.061l-584.978,-549.086c-0.127,-0.119 -0.251,-0.239 -0.374,-0.362l-7.344,-7.344c-0.553,-0.553 -1.066,-1.145 -1.535,-1.771c-7.98,-10.659 -11.057,-25.222 -9.057,-39.215c1.999,-13.994 9.033,-27.116 19.693,-35.115l0.014,-0.011c10.659,-7.98 25.222,-11.057 39.215,-9.057c13.445,1.921 26.086,8.489 34.14,18.442l622.506,585.884l-6.832,17.226c0.042,0.059 0.083,0.118 0.124,0.178Zm-12.872,-13.267c-1.408,-2.829 -2.714,-4.412 -3.648,-3.433l3.648,3.433Z" style="fill-rule:nonzero;"/><path d="M877.997,880.573l12.519,-18.481c10.256,25.676 -0.004,56.03 -24.617,67.765l-575.062,510.773l581.035,548.75c0.114,0.107 0.226,0.216 0.337,0.327c21.303,21.303 21.303,53.274 -0,74.577c-10.652,10.651 -21.329,15.817 -37.288,15.817c-15.866,0 -26.511,-5.105 -37.1,-15.629l-623.243,-586.578c-0.121,-0.114 -0.24,-0.23 -0.358,-0.347c-10.651,-10.652 -15.817,-21.329 -15.817,-37.288c0,-16.454 5.014,-27.743 21.02,-38.693c0,0 620.357,-547.365 620.352,-547.358c5.025,-9.068 10.481,-14.073 20.473,-19.052c0.4,-0.2 0.808,-0.382 1.222,-0.548c26.692,-10.684 58.354,0.811 69.038,27.466l-12.512,18.494c0.001,0.002 0.001,0.003 0.001,0.005Z" style="fill-rule:nonzero;"/><path d="M1611.39,378.957l0.01,0.002c31.722,5.286 51.497,32.825 46.517,59.256l-293.312,2053.16c-0.042,0.298 -0.093,0.595 -0.152,0.89c-5.205,26.094 -26.73,46.232 -52.789,46.232l-3.659,0c-0.904,0 -1.805,-0.074 -2.696,-0.222c-31.766,-5.283 -51.509,-32.824 -46.529,-59.259c-0,-0 293.161,-2052.1 293.16,-2052.08c0.678,-31.907 27.273,-53.324 59.45,-47.973Z" style="fill-rule:nonzero;"/></g></svg>