<?xml version="1.0" encoding="UTF-8" standalone="no"?><!DOCTYPE svg PUBLIC "-//W3C//DTD SVG 1.1//EN" "http://www.w3.org/Graphics/SVG/1.1/DTD/svg11.dtd"><svg width="100%" height="100%" viewBox="0 0 2917 2917" version="1.1" xmlns="http://www.w3.org/2000/svg" xmlns:xlink="http://www.w3.org/1999/xlink" xml:space="preserve" xmlns:serif="http://www.serif.com/" style="fill-rule:evenodd;clip-rule:evenodd;stroke-linejoin:round;stroke-miterlimit:2;"><path d="M1343.49,1579.65c0.216,-0 0.432,-0.005 0.647,-0.013c9.113,-0.359 17.987,3.008 24.571,9.337l0.014,0.014c6.579,6.309 10.279,15.045 10.279,24.166c0,8.881 -3.527,17.404 -9.804,23.686c-6.301,6.282 -14.812,9.818 -23.7,9.818l-86.901,0c-5.022,0 -9.769,2.297 -12.885,6.235c-3.117,3.939 -4.261,9.086 -3.106,13.974l42.936,181.78c1.352,5.727 5.665,10.294 11.305,11.972c13.781,4.101 23.225,16.787 23.21,31.16l-0,0.017c-0,8.885 -3.529,17.411 -9.812,23.693c-6.282,6.282 -14.808,9.812 -23.692,9.812l-527.316,-0c-8.884,-0 -17.411,-3.53 -23.693,-9.812c-6.282,-6.282 -9.811,-14.808 -9.811,-23.693c-0,-18.502 15.002,-33.504 33.504,-33.504l66.926,0c7.437,0 13.946,-4.994 15.872,-12.177l47.929,-178.766c1.323,-4.934 0.276,-10.204 -2.834,-14.257c-3.11,-4.054 -7.928,-6.43 -13.037,-6.43l-541.32,0c-54.699,0 -107.165,-21.745 -145.86,-60.418c-38.675,-38.699 -60.418,-91.161 -60.418,-145.86l-0,-907.869c-0,-54.699 21.745,-107.165 60.418,-145.86c38.699,-38.675 91.161,-60.418 145.86,-60.418l1465.16,-0c54.719,-0 107.185,21.744 145.859,60.418c38.696,38.698 60.419,91.161 60.419,145.86l-0,479.212c-0.413,18.386 -15.172,33.19 -33.54,33.677c-8.95,-0.038 -17.4,-3.57 -23.664,-9.816c-6.278,-6.281 -9.805,-14.804 -9.805,-23.685l0,-479.388c0,-36.93 -14.662,-72.366 -40.796,-98.477c-26.108,-26.108 -61.546,-40.791 -98.472,-40.791l-1465.16,-0c-36.928,-0 -72.364,14.684 -98.474,40.793c-26.109,26.109 -40.793,61.548 -40.793,98.475l-0,769.018c-0,9.075 7.356,16.432 16.431,16.432l1223.47,-0c8.882,-0 17.405,3.527 23.686,9.804c6.282,6.301 9.818,14.812 9.818,23.7c0,8.885 -3.529,17.411 -9.811,23.693c-6.282,6.282 -14.808,9.811 -23.693,9.811l-1223.47,0.023c-9.075,-0 -16.431,7.357 -16.431,16.432l-0,38.945c-0,36.929 14.684,72.365 40.793,98.474c26.108,26.11 61.547,40.794 98.474,40.794l1010.18,0c0.178,0.006 0.356,0.009 0.534,0.009Zm-142.813,278.63c5.109,-0 9.927,-2.377 13.037,-6.43c3.11,-4.054 4.157,-9.323 2.834,-14.258l-47.93,-178.766c-1.925,-7.182 -8.435,-12.176 -15.871,-12.176l-175.781,-0c-7.468,-0 -13.996,5.035 -15.893,12.258l-46.95,178.766c-1.294,4.927 -0.229,10.175 2.882,14.209c3.111,4.034 7.917,6.397 13.012,6.397l270.66,-0Zm-321.223,-1056.74l-99.874,99.874c-6.417,6.417 -6.417,16.821 0,23.239l99.873,99.872c0.12,0.12 0.241,0.238 0.365,0.354c6.346,5.965 9.936,14.276 9.936,22.982c0,8.7 -3.58,17.023 -9.921,22.969c-0.253,0.236 -0.497,0.481 -0.734,0.733c-5.966,6.347 -14.275,9.958 -22.982,9.958c-8.701,0 -17.022,-3.602 -22.969,-9.944c-0.134,-0.143 -0.271,-0.283 -0.41,-0.421l-139.698,-138.695c-12.831,-13.316 -12.863,-34.38 -0.097,-47.737c0.097,-0.101 139.795,-138.796 139.795,-138.796c0.14,-0.138 0.276,-0.278 0.41,-0.421c5.947,-6.343 14.268,-9.944 22.969,-9.944c8.707,-0 17.016,3.611 22.982,9.958c0.586,0.624 1.219,1.2 1.895,1.725c8.168,6.342 12.952,16.128 12.952,26.48c-0,9.158 0.766,14.354 -6.46,19.966c-0.541,0.42 -1.055,0.873 -1.539,1.357l-6.493,6.491Zm371.717,230.029l98.938,-98.938c6.417,-6.417 6.417,-16.821 -0,-23.238l-99.873,-99.873l-0.02,-0.02l-6.373,-6.351c-12.283,-12.786 -5.881,-28.56 6.449,-41.338c6.345,-6.356 14.871,-9.913 23.77,-9.913c8.949,0 17.508,3.581 23.808,9.926l0.041,0.042l138.817,138.817l0.041,0.041c6.344,6.298 9.926,14.853 9.926,23.785c0,8.949 -3.58,17.507 -9.926,23.808l-0.041,0.041l-138.817,138.817l-0.013,0.013c-6.416,6.431 -15.091,10.087 -24.155,10.154c-13.418,-0.248 -25.369,-8.381 -30.453,-20.739c-5.198,-12.637 -6.39,-29.061 3.168,-38.817c0.576,-0.589 1.108,-1.219 1.589,-1.887l3.124,-4.33Zm-101.356,-284.4c2.12,1.705 6.992,5.764 11.576,10.586c2.94,3.092 6.068,6.363 7.153,9.527l0.009,0.025c2.887,8.38 2.316,17.559 -1.571,25.532c-0.022,0.044 -139.799,277.59 -139.799,277.59c-0.059,0.118 -0.117,0.237 -0.174,0.356c-5.303,11.194 -16.51,18.393 -28.891,18.578c-5.662,-0.097 -11.117,-1.267 -16.201,-3.451c-7.885,-3.904 -13.824,-10.734 -16.531,-19.016l-0.008,-0.025c-2.755,-8.382 -1.984,-17.519 2.133,-25.324c0.059,-0.112 0.117,-0.225 0.174,-0.339l136.836,-274.649c0.255,-0.51 0.482,-1.033 0.682,-1.567c3.287,-8.781 10.207,-15.692 18.972,-19.012c8.351,-3.143 17.613,-2.69 25.615,1.174l0.025,0.015Zm1606.86,1006.24c8.885,-0 17.411,3.529 23.693,9.811c6.282,6.282 9.811,14.808 9.811,23.693l0,241.703c0,8.885 -3.529,17.411 -9.811,23.693c-6.282,6.282 -14.809,9.811 -23.693,9.811l-87.877,0c-7.222,0 -13.598,4.716 -15.712,11.622c-10.803,35.287 -25.09,69.407 -42.691,101.838c-3.449,6.354 -2.339,14.215 2.732,19.366l61.933,62.909c0.043,0.044 0.087,0.088 0.131,0.132c6.345,6.3 9.926,14.858 9.926,23.807c0,8.932 -3.582,17.487 -9.926,23.786l-0.041,0.041l-169.678,169.678c-13.36,12.874 -34.526,12.875 -47.885,0.002c-0.046,-0.044 -62.896,-61.92 -62.896,-61.92c-5.152,-5.071 -13.013,-6.18 -19.366,-2.732c-32.433,17.601 -66.55,31.888 -101.839,42.691c-6.906,2.114 -11.622,8.49 -11.622,15.712l0,87.877c0,8.885 -3.529,17.411 -9.811,23.693c-6.282,6.282 -14.808,9.811 -23.693,9.811l-241.703,0c-8.884,0 -17.411,-3.529 -23.693,-9.811c-6.282,-6.282 -9.811,-14.808 -9.811,-23.693l0,-87.877c0,-7.222 -4.716,-13.598 -11.622,-15.712c-35.287,-10.803 -69.407,-25.09 -101.838,-42.691c-6.354,-3.448 -14.215,-2.339 -19.366,2.732l-62.908,61.933c-0.17,0.167 -0.336,0.338 -0.499,0.512c-5.872,6.308 -14.122,9.849 -22.735,9.747c-0.056,-0 -0.111,-0.001 -0.167,-0.001c-9.144,-0.015 -17.896,-3.667 -24.339,-10.141l-0.027,-0.027l-169.783,-169.783l-0.042,-0.041c-6.343,-6.299 -9.926,-14.854 -9.926,-23.786c0,-8.949 3.581,-17.507 9.926,-23.807c0.044,-0.044 0.088,-0.088 0.132,-0.132l61.932,-62.909c5.072,-5.151 6.181,-13.012 2.733,-19.365c-17.601,-32.433 -31.889,-66.55 -42.692,-101.839c-2.114,-6.906 -8.489,-11.622 -15.712,-11.622l-87.876,0c-8.885,0 -17.411,-3.529 -23.693,-9.811c-6.282,-6.282 -9.812,-14.808 -9.812,-23.693l0,-241.703c0,-18.502 15.003,-33.504 33.505,-33.504l87.876,-0c7.222,-0 13.598,-4.716 15.712,-11.622c10.803,-35.287 25.091,-69.408 42.692,-101.838c3.448,-6.354 2.339,-14.215 -2.733,-19.366l-61.932,-62.909c-0.044,-0.044 -0.088,-0.088 -0.132,-0.132c-6.345,-6.3 -9.926,-14.858 -9.926,-23.807c0,-8.932 3.583,-17.487 9.926,-23.786l0.042,-0.041l169.678,-169.678c13.359,-12.874 34.526,-12.875 47.885,-0.002c0.045,0.044 62.896,61.92 62.896,61.92c5.151,5.071 13.012,6.18 19.366,2.732c32.433,-17.601 66.55,-31.888 101.838,-42.691c6.906,-2.114 11.622,-8.49 11.622,-15.713l0,-87.876c0,-18.502 15.002,-33.504 33.504,-33.504l241.703,-0c8.885,-0 17.411,3.529 23.693,9.811c6.282,6.282 9.812,14.808 9.812,23.693l-0,87.876c-0,7.223 4.715,13.598 11.621,15.713c35.288,10.802 69.408,25.09 101.839,42.691c6.353,3.448 14.214,2.339 19.366,-2.732l62.908,-61.933c0.17,-0.167 0.336,-0.338 0.499,-0.512c5.872,-6.308 14.122,-9.849 22.735,-9.747c0.145,0.001 0.291,0.001 0.437,-0.001c8.996,-0.133 17.639,3.457 23.868,9.938c0.075,0.078 0.151,0.155 0.228,0.232l169.783,169.783l0.041,0.041c6.344,6.299 9.926,14.854 9.926,23.786c0,8.949 -3.581,17.507 -9.926,23.807c-0.044,0.044 -0.088,0.088 -0.131,0.132l-61.933,62.909c-5.071,5.151 -6.18,13.012 -2.732,19.365c17.6,32.433 31.888,66.55 42.691,101.839c2.114,6.906 8.49,11.622 15.712,11.622l87.877,-0Zm-49.936,241.703c9.075,-0 16.432,-7.357 16.432,-16.432l-0,-141.831c-0,-9.075 -7.357,-16.432 -16.432,-16.432l-76.914,0l-0.015,0c-15.396,0.015 -28.689,-10.793 -31.827,-25.863c-0.027,-0.126 -0.054,-0.252 -0.083,-0.377c-12.604,-54.131 -34.227,-105.782 -63.975,-152.739c-8.017,-13.335 -6.114,-30.414 4.664,-41.65c0.09,-0.093 53.92,-53.924 53.92,-53.924c6.417,-6.417 6.417,-16.821 0,-23.238l-99.872,-99.873c-6.417,-6.417 -16.821,-6.417 -23.239,0l-53.933,53.934c-11.056,11.069 -28.3,13.012 -41.556,4.704c-46.974,-29.778 -98.657,-51.42 -152.825,-64.029c-0.125,-0.029 -0.25,-0.056 -0.375,-0.082c-15.07,-3.139 -25.879,-16.431 -25.864,-31.827l0,-0.016l0,-76.913c0,-9.075 -7.357,-16.432 -16.432,-16.432l-141.83,-0c-9.075,-0 -16.432,7.357 -16.432,16.432l-0,76.913l-0,0.016c0.015,15.396 -10.794,28.688 -25.864,31.827c-0.126,0.026 -0.251,0.054 -0.376,0.083c-54.164,12.611 -105.844,34.252 -152.823,64.027c-13.258,8.308 -30.503,6.366 -41.556,-4.703l-53.935,-53.934c-6.417,-6.417 -16.821,-6.417 -23.238,0l-99.873,99.873c-6.417,6.417 -6.417,16.821 0,23.238l53.831,53.83c10.851,11.231 12.792,28.356 4.75,41.748c-29.324,47.198 -50.896,98.679 -63.938,152.598c-0.042,0.171 -0.08,0.342 -0.116,0.513c-3.138,15.071 -16.431,25.879 -31.827,25.864l-0.016,0l-76.913,0c-9.075,0 -16.432,7.357 -16.432,16.432l0,141.831c0,9.075 7.357,16.432 16.432,16.432l76.913,-0l0.016,-0c15.396,-0.015 28.689,10.793 31.827,25.863c0.036,0.172 0.075,0.344 0.116,0.515c13.05,53.936 34.631,105.435 63.919,152.564c8.046,13.32 6.153,30.433 -4.641,41.687c-0.09,0.093 -53.921,53.924 -53.921,53.924c-6.417,6.417 -6.417,16.821 0,23.238l99.873,99.873c6.417,6.417 16.821,6.417 23.238,-0l53.831,-53.83c11.198,-10.821 28.256,-12.782 41.632,-4.82c47.081,29.824 98.725,51.442 152.852,64.04c0.125,0.029 0.25,0.057 0.375,0.083c15.07,3.138 25.879,16.431 25.864,31.827l-0,0.016l-0,76.913c-0,9.075 7.357,16.432 16.432,16.432l141.83,0c9.075,0 16.432,-7.357 16.432,-16.432l0,-76.913l0,-0.016c-0.015,-15.396 10.793,-28.688 25.864,-31.827c0.126,-0.026 0.251,-0.054 0.376,-0.083c54.131,-12.604 105.783,-34.226 152.74,-63.974c13.335,-8.018 30.413,-6.114 41.65,4.663c0.093,0.09 53.923,53.921 53.923,53.921c6.418,6.417 16.822,6.417 23.239,-0l99.872,-99.873c6.417,-6.417 6.417,-16.821 0,-23.238l-53.83,-53.83c-10.82,-11.199 -12.781,-28.257 -4.82,-41.633c29.824,-47.08 51.442,-98.725 64.041,-152.851c0.029,-0.125 0.056,-0.25 0.083,-0.376c3.138,-15.07 16.431,-25.878 31.827,-25.863l0.015,-0l76.914,-0Zm-599.235,-320.597c61.854,0 121.187,24.572 164.943,68.305c43.731,43.761 68.306,103.089 68.306,164.944c-0,61.855 -24.572,121.188 -68.305,164.944c-43.761,43.731 -103.089,68.306 -164.944,68.306c-61.855,-0 -121.188,-24.572 -164.944,-68.305c-43.731,-43.761 -68.306,-103.089 -68.306,-164.945c0,-61.854 24.572,-121.187 68.305,-164.943c43.761,-43.731 103.089,-68.306 164.945,-68.306Zm-0,399.49c44.077,0 86.381,-17.52 117.551,-48.684c31.171,-31.165 48.686,-73.476 48.686,-117.554c0,-44.077 -17.52,-86.381 -48.684,-117.551c-31.165,-31.171 -73.475,-48.687 -117.553,-48.687c-44.077,0 -86.382,17.52 -117.552,48.685c-31.17,31.165 -48.686,73.475 -48.686,117.553c-0,44.077 17.52,86.382 48.684,117.552c31.165,31.17 73.47,48.686 117.554,48.686Z" style="fill-rule:nonzero;"/></svg>